<?xml version="1.0" encoding="UTF-8"?> <svg xmlns="http://www.w3.org/2000/svg" xmlns:xlink="http://www.w3.org/1999/xlink" id="eu414e14u78e1" viewBox="0 0 245.500000 259.380000" shape-rendering="geometricPrecision" text-rendering="geometricPrecision"><style><![CDATA[#eu414e14u78e5 {animation: eu414e14u78e5_c_o 3000ms linear infinite normal backwards}@keyframes eu414e14u78e5_c_o { 0% {opacity: 0} 50% {opacity: 1} 100% {opacity: 0} }#eu414e14u78e7_tr {animation: eu414e14u78e7_tr__tr 3000ms linear infinite normal backwards}@keyframes eu414e14u78e7_tr__tr { 0% {transform: translate(114.959999px,145.179993px) rotate(90deg)} 100% {transform: translate(114.959999px,145.179993px) rotate(0deg)} }#eu414e14u78e8_tr {animation: eu414e14u78e8_tr__tr 3000ms linear infinite normal backwards}@keyframes eu414e14u78e8_tr__tr { 0% {transform: translate(116.070412px,145.180000px) rotate(360deg)} 100% {transform: translate(116.070412px,145.180000px) rotate(450deg)} }]]></style><g id="eu414e14u78e2"><g id="eu414e14u78e3"><path id="eu414e14u78e4" d="M161.810000,150.460000C161.497208,151.033424,161.271406,151.650166,161.140000,152.290000C160.497480,154.344966,159.110015,156.085538,157.250000,157.170000C156.900000,157.360000,156.810000,157.470000,157.120000,157.800000C159.149731,160.034647,160.207452,162.984754,160.060000,166Q160.060000,173.690000,160.060000,181.370000C160.060000,183,159.420000,183.600000,157.760000,183.600000Q146.240000,183.600000,134.760000,183.600000C134.080000,183.600000,133.760000,183.720000,133.850000,184.480000C133.890102,184.995889,133.890102,185.514111,133.850000,186.030000C133.916018,186.570914,133.738878,187.113268,133.366308,187.510934C132.993738,187.908600,132.464065,188.120668,131.920000,188.090000Q127.260000,188.160000,122.590000,188.090000C122.056047,188.129769,121.532330,187.928423,121.162535,187.541204C120.792741,187.153984,120.615705,186.621557,120.680000,186.090000C120.708090,185.590809,120.935970,185.123947,121.312244,184.794707C121.688518,184.465467,122.181498,184.301577,122.680000,184.340000C124.900000,184.340000,127.130000,184.340000,129.350000,184.340000C130.010000,184.340000,130.200000,184.150000,130.140000,183.520000C130.098572,182.511592,129.974827,181.508255,129.770000,180.520000C129.346564,178.745850,128.165739,177.246970,126.540000,176.420000C124.838526,175.620937,123.067898,174.978290,121.250000,174.500000C120.730000,174.340000,120.770000,174.710000,120.660000,174.930000C118.912514,178.453980,114.660323,179.923323,111.110000,178.230000C109.660046,177.550524,108.502922,176.372104,107.850000,174.910000C107.670000,174.510000,107.520000,174.400000,107.060000,174.550000C105.422759,174.995098,103.821526,175.563386,102.270000,176.250000C100.017915,177.265742,98.545418,179.480316,98.480000,181.950000C98.300000,184.300000,98.310000,184.300000,100.690000,184.300000L105.630000,184.300000C107.020000,184.300000,107.840000,185.010000,107.840000,186.170000C107.840000,187.330000,107.020000,188.040000,105.630000,188.050000Q101.280000,188.050000,96.940000,188.050000C95.360000,188.050000,94.670000,187.320000,94.660000,185.750000C94.660000,185.050000,94.890000,184.120000,94.540000,183.750000C94.190000,183.380000,93.160000,183.590000,92.440000,183.590000C85.310000,183.590000,78.170000,183.590000,71.040000,183.590000C68.770000,183.590000,68.040000,183.100000,68.100000,180.700000C68.180000,175.970000,68.210000,171.240000,68.100000,166.520000C67.940000,159.320000,71.800000,156.120000,76.510000,154.250000C78.874754,153.392898,81.281129,152.655299,83.720000,152.040000C84.010000,151.960000,84.500000,152.040000,84.530000,151.500000C84.621909,151.020832,84.401450,150.535823,83.980000,150.290000C79.203389,147.532609,76.283450,142.415072,76.340000,136.900000C76.340000,134.190000,76.340000,131.470000,76.340000,128.760000C76.687365,120.876051,82.839910,114.478732,90.704318,113.824210C98.568727,113.169689,105.694145,118.461938,107.340000,126.180000C107.544992,127.008202,107.655695,127.856925,107.670000,128.710000C107.876830,132.088103,107.843412,135.476633,107.570000,138.850000C107.027386,143.594852,104.291912,147.810962,100.180000,150.240000C99.810000,150.470000,99.490000,150.650000,99.510000,151.190000C99.530000,151.730000,99.650000,151.890000,100.110000,152C101,152.210000,101.880000,152.450000,102.740000,152.720000C103.170000,152.860000,103.310000,152.720000,103.490000,152.350000C105.099709,148.572498,108.588003,145.928698,112.660000,145.400000C113.715716,145.220004,114.794284,145.220004,115.850000,145.400000C116.260639,145.509858,116.699027,145.408692,117.020000,145.130000C119.611452,143.072836,121.139261,139.958457,121.180000,136.650000C121.270000,134.060000,121.070000,131.470000,121.370000,128.880000C121.960000,123.880000,123.530000,119.460000,127.680000,116.300000C133.750000,111.680000,146.330000,112.300000,149.900000,123.770000C150.748884,126.726343,151.140084,129.795239,151.060000,132.870000C150.909279,135.001245,151.040411,137.143060,151.450000,139.240000C152.510000,143.240000,155.290000,145.730000,158.990000,147.320000C159.990000,147.750000,161.140000,147.940000,161.800000,148.950000ZM71.810000,171.920000C71.810000,174.660000,71.810000,176.920000,71.810000,179.170000C71.810000,179.730000,71.900000,179.960000,72.540000,179.940000C74.060000,179.890000,75.540000,179.890000,77.110000,179.940000C77.730000,179.940000,77.940000,179.820000,77.920000,179.150000C77.920000,177.050000,77.920000,174.950000,77.920000,172.850000C77.794992,171.865722,78.448383,170.950974,79.420000,170.750000C80.720000,170.520000,81.650000,171.360000,81.670000,172.830000Q81.670000,176.070000,81.670000,179.320000C81.670000,179.790000,81.790000,179.940000,82.280000,179.930000C86.360000,179.930000,90.440000,179.930000,94.530000,179.930000C94.705759,179.958477,94.885506,179.913609,95.027263,179.805873C95.169021,179.698137,95.260378,179.536967,95.280000,179.360000C96.011008,176.617026,97.908038,174.332550,100.470000,173.110000C102.319467,172.252074,104.235818,171.546402,106.200000,171C106.570000,170.880000,107.200000,171,107.200000,170.410000C107.200000,169.820000,107.370000,169.140000,106.700000,168.590000C104.712035,166.952056,103.337370,164.689146,102.800000,162.170000C102.523329,160.545478,102.446091,158.893248,102.570000,157.250000C102.570000,156.740000,102.450000,156.490000,101.940000,156.380000C101.228447,156.231238,100.527040,156.037516,99.840000,155.800000C99.310000,155.620000,99.100000,155.800000,98.840000,156.290000C97.640784,159.001586,94.954931,160.750545,91.990000,160.750545C89.025069,160.750545,86.339216,159.001586,85.140000,156.290000C85.030000,156.060000,85.140000,155.610000,84.530000,155.780000C81.590000,156.630000,78.530000,157.270000,75.870000,158.780000C73.602864,159.893409,72.084936,162.113378,71.870000,164.630000C71.650000,167.170000,71.890000,169.790000,71.790000,171.920000ZM156.360000,172.160000C156.360000,170.160000,156.310000,168.160000,156.360000,166.160000C156.460000,162.300000,154.690000,159.700000,151.190000,158.160000C148.884640,157.243771,146.523178,156.475544,144.120000,155.860000C143.520000,155.680000,143.230000,155.740000,142.920000,156.400000C141.879018,158.840600,139.565670,160.498499,136.920000,160.700000C134.153313,161.023492,131.441925,159.753013,129.920000,157.420000C129.510000,156.870000,129.560000,155.850000,128.800000,155.770000C128.040000,155.690000,127.420000,156.170000,126.700000,156.280000C125.980000,156.390000,125.960000,156.660000,125.960000,157.280000C126.081518,159.073847,125.967210,160.875885,125.620000,162.640000C125.031215,164.991555,123.706893,167.093653,121.840000,168.640000C121.140000,169.210000,121.330000,169.890000,121.370000,170.540000C121.410000,171.190000,121.970000,170.930000,122.310000,171.050000C123.430000,171.430000,124.560000,171.750000,125.680000,172.140000C129.340000,173.440000,132.280000,175.510000,133.300000,179.540000C133.420000,180.020000,133.750000,180.010000,134.130000,180.010000C138.030000,180.010000,141.930000,180.010000,145.830000,180.010000C146.520000,180.010000,146.610000,179.770000,146.600000,179.170000C146.600000,177.170000,146.600000,175.090000,146.600000,173.050000C146.559179,172.624934,146.620905,172.196278,146.780000,171.800000C147.148404,171.020783,148.010603,170.604262,148.850000,170.800000C149.720834,170.976702,150.332429,171.762433,150.290000,172.650000C150.290000,174.870000,150.290000,177.100000,150.290000,179.320000C150.290000,179.850000,150.430000,179.980000,150.940000,179.970000C152.470000,179.970000,153.990000,179.970000,155.520000,179.970000C156.170000,179.970000,156.400000,179.860000,156.380000,179.140000C156.300000,176.800000,156.340000,174.480000,156.340000,172.160000ZM92.220000,148.850000C93.332585,148.853594,94.439020,148.684930,95.500000,148.350000C100.808911,146.726524,104.327832,141.693600,104.030000,136.150000C104.030000,135.430000,103.910000,135.150000,103.110000,135.150000C98.020000,135.150000,93.040000,134.540000,88.460000,132.150000C88.215435,131.968965,87.873307,132.003611,87.670000,132.230000C86.004843,133.619532,83.966087,134.485829,81.810000,134.720000C80,135,80,135,80,136.840000C79.996773,140.062818,81.290028,143.151476,83.588570,145.410518C85.887112,147.669560,88.997722,148.909087,92.220000,148.850000ZM136.140000,130.720000C135.466417,131.521687,134.677871,132.219247,133.800000,132.790000C131.429578,134.315131,128.593461,134.946167,125.800000,134.570000C125.170000,134.490000,124.800000,134.570000,124.910000,135.320000C125.020000,136.070000,124.910000,136.600000,125.020000,137.230000C125.345745,140.379714,126.987243,143.245137,129.539523,145.119349C132.091804,146.993561,135.317206,147.702040,138.420000,147.070000C144.009790,145.900795,147.862704,140.763576,147.420000,135.070000C147.420000,134.450000,147.060000,134.540000,146.720000,134.600000C145.389972,134.795327,144.035927,134.754706,142.720000,134.480000C140.150532,134.045641,137.818716,132.713175,136.140000,130.720000ZM101.440000,131.470000L102.300000,131.470000C104.010000,131.470000,104.010000,131.470000,104.010000,129.770000C104.139671,123.269434,99.027853,117.868184,92.530000,117.640000C89.039116,117.487298,85.653606,118.856173,83.249888,121.392258C80.846171,123.928343,79.660567,127.382304,80,130.860000C80,131.190000,80.130000,131.280000,80.440000,131.230000C82.510000,130.910000,84.500000,130.440000,85.950000,128.730000C87.010000,127.470000,87.710000,127.400000,89.090000,128.260000C89.450000,128.480000,89.820000,128.700000,90.200000,128.900000C93.697826,130.613458,97.545107,131.493130,101.440000,131.470000ZM145.440000,130.930000C145.720000,130.930000,146.230000,130.930000,146.750000,130.860000C147.270000,130.790000,147.390000,130.720000,147.340000,130.190000C147.164581,128.148119,146.748358,126.134140,146.100000,124.190000C143.300000,116.360000,134.290000,116.190000,130.100000,119.270000C126.370000,122.030000,125.350000,126.080000,125.030000,130.420000C125.030000,130.810000,125.250000,130.880000,125.530000,130.910000C128.850000,131.210000,132.130000,130.800000,134.360000,126.850000C135.360000,125.110000,136.990000,125.090000,137.950000,126.850000C139.403062,129.583472,142.345104,131.188223,145.430000,130.930000ZM114.240000,157.430000C111.622747,157.455796,109.057799,158.165984,106.800000,159.490000C106.490000,159.680000,106.190000,159.810000,106.250000,160.310000C106.480454,163.364943,108.456381,166.011205,111.320000,167.100000C113.679846,168.064580,116.358125,167.846676,118.531011,166.513314C120.703897,165.179952,122.111185,162.890804,122.320000,160.350000C122.320000,159.880000,122.140000,159.720000,121.820000,159.520000C119.519872,158.163136,116.900492,157.441858,114.230000,157.430000ZM149.120000,143.490000C148.200913,145.246441,146.861001,146.747830,145.220000,147.860000C144.022335,148.474354,143.380478,149.811216,143.650000,151.130000C143.616012,151.365293,143.678669,151.604328,143.823710,151.792693C143.968751,151.981058,144.183834,152.102725,144.420000,152.130000C147.148634,152.750272,149.823708,153.586233,152.420000,154.630000C152.642514,154.729712,152.889644,154.761038,153.130000,154.720000C155.090158,154.605523,156.806262,153.365248,157.530000,151.540000C157.730000,151.010000,157.650000,150.830000,157.150000,150.600000C153.752125,149.192878,150.922156,146.690256,149.110000,143.490000ZM122.060000,155.490000C121.289289,151.620205,117.812145,148.890286,113.870000,149.060000C110.130000,149.340000,106.700000,152.330000,106.540000,155.450000C111.462493,153.187600,117.127507,153.187600,122.050000,155.450000ZM139.920000,152.560000C139.920000,152.030000,139.920000,151.560000,139.920000,151.180000C139.920000,150.800000,139.780000,150.590000,139.340000,150.690000C137.235283,151.184160,135.044717,151.184160,132.940000,150.690000C132.570000,150.600000,132.310000,150.590000,132.340000,151.130000C132.340000,151.920000,132.340000,152.710000,132.340000,153.500000C132.455134,155.330159,133.864041,156.815366,135.685590,157.026774C137.507140,157.238182,139.218758,156.115141,139.750000,154.360000C139.882436,153.756129,139.936215,153.137666,139.910000,152.520000ZM120.450000,147.140000C122.198273,148.235389,123.629098,149.769647,124.600000,151.590000C125.280000,152.860000,125.280000,152.860000,126.600000,152.480000L126.680000,152.480000C128.680000,151.920000,128.680000,151.920000,128.680000,149.810000C128.724072,149.328686,128.465089,148.870484,128.030000,148.660000C126.227156,147.512081,124.697919,145.982844,123.550000,144.180000C123.430000,143.990000,123.390000,143.710000,123.080000,143.670000C122.366086,144.932064,121.477287,146.086830,120.440000,147.100000ZM88.300000,152.140000C88.080000,154.060000,88.530000,155.620000,90.250000,156.560000C91.517483,157.295045,93.106337,157.175881,94.250000,156.260000C95.523757,155.312234,96.093711,153.685492,95.690000,152.150000C93.256661,152.730357,90.720166,152.723502,88.290000,152.130000ZM117.580000,171.910000C117.150000,171.820000,118.130000,170.840000,117.100000,171.050000C115.229812,171.468677,113.290188,171.468677,111.420000,171.050000C111.160000,170.980000,111,170.910000,110.930000,171.300000C110.750376,172.191896,110.946942,173.118381,111.473244,173.860505C111.999547,174.602630,112.808887,175.094545,113.710000,175.220000C116,175.410000,117.520000,174.140000,117.570000,171.900000Z" fill="rgb(26,94,100)" stroke="none" stroke-width="1"></path><path id="eu414e14u78e5" d="M128.530000,103.250000C128.654133,105.561033,127.788651,107.815648,126.150000,109.450000Q121.380000,114.120000,116.550000,118.730000C116.213451,119.160994,115.700949,119.417825,115.154244,119.429457C114.607539,119.441089,114.084577,119.206290,113.730000,118.790000C110.490000,115.690000,107.240000,112.600000,104.070000,109.440000C101.866175,107.412823,101.055992,104.281679,102,101.440000C102.728503,98.916009,104.642744,96.906264,107.128306,96.055835C109.613869,95.205406,112.358032,95.621290,114.480000,97.170000C114.638645,97.337575,114.859241,97.432505,115.090000,97.432505C115.320759,97.432505,115.541355,97.337575,115.700000,97.170000C118.130042,95.288849,121.443598,95.025806,124.140000,96.500000C126.771315,97.728153,128.474348,100.346711,128.530000,103.250000ZM109.770000,99.380000C108.026080,99.331799,106.433938,100.366691,105.770000,101.980000C105.036013,103.651051,105.436906,105.603401,106.770000,106.850000C109.430000,109.450000,112.110000,112.010000,114.770000,114.600000C115.070000,114.890000,115.220000,114.950000,115.550000,114.600000C118.260000,111.960000,121.010000,109.380000,123.680000,106.710000C125.309927,105.078607,125.358513,102.450524,123.790000,100.760000C122.948815,99.863587,121.774288,99.355074,120.545000,99.355074C119.315712,99.355074,118.141185,99.863587,117.300000,100.760000C115.390000,102.560000,114.940000,102.560000,113.030000,100.760000L112.760000,100.510000C111.954187,99.749221,110.877565,99.342337,109.770000,99.380000Z" opacity="0" fill="rgb(85,160,71)" stroke="none" stroke-width="1"></path><path id="eu414e14u78e6" d="M116.070000,186.260000C116.047909,187.270681,115.210681,188.072091,114.200000,188.050000C113.189319,188.027909,112.387909,187.190681,112.410000,186.180000C112.432091,185.169319,113.269319,184.367909,114.280000,184.390000C115.290681,184.412091,116.092091,185.249319,116.070000,186.260000Z" fill="rgb(26,94,100)" stroke="none" stroke-width="1"></path><g id="eu414e14u78e7_tr" transform="translate(114.959999,145.179993) rotate(90)"><circle id="eu414e14u78e7" r="84.450000" transform="translate(0.000001,0.000007)" fill="none" stroke="rgb(85,160,71)" stroke-width="4" stroke-linecap="round" stroke-linejoin="round" stroke-dasharray="1,11.950000"></circle></g><g id="eu414e14u78e8_tr" transform="translate(116.070412,145.180000) rotate(360)"><circle id="eu414e14u78e8" r="112.180000" transform="scale(1,1) translate(0,0)" opacity="0.4" fill="none" stroke="rgb(85,160,71)" stroke-width="4" stroke-linecap="round" stroke-linejoin="round" stroke-dasharray="1,11.950000"></circle></g><rect id="eu414e14u78e9" width="63.830000" height="52.130000" rx="6.650000" ry="6.650000" transform="matrix(1 0 0 1 82.09999999999999 0)" fill="rgb(255,255,255)" stroke="none" stroke-width="1"></rect><path id="eu414e14u78e10" d="M132.690000,4.070000L95.780000,4.070000C93.342801,4.069994,91.365514,6.042808,91.360000,8.480000L91.360000,45.400000C91.365499,47.838817,93.341183,49.814501,95.780000,49.820000L132.690000,49.820000C135.128817,49.814501,137.104501,47.838817,137.110000,45.400000L137.110000,8.480000C137.104486,6.042808,135.127199,4.069994,132.690000,4.070000ZM94.050000,8.480000C94.050000,8.021175,94.232267,7.581143,94.556705,7.256705C94.881143,6.932267,95.321175,6.750000,95.780000,6.750000L132.690000,6.750000C133.647084,6.749984,134.424500,7.522932,134.430000,8.480000L134.430000,45.400000C134.424500,46.357068,133.647084,47.130016,132.690000,47.130000L95.780000,47.130000C95.321175,47.130000,94.881143,46.947733,94.556705,46.623295C94.232267,46.298857,94.050000,45.858825,94.050000,45.400000Z" fill="rgb(4,178,227)" stroke="none" stroke-width="1"></path><path id="eu414e14u78e11" d="M106.760000,23.410000C107.009369,23.666574,107.352209,23.810928,107.710000,23.810000C108.085264,23.826196,108.449427,23.680531,108.710000,23.410000C111.794834,20.345160,116.775166,20.345160,119.860000,23.410000C120.121304,23.679443,120.484957,23.824904,120.860000,23.810000C121.218022,23.812088,121.561299,23.667551,121.810000,23.410000L127.610000,17.620000C127.858257,17.365877,127.998091,17.025255,128,16.670000C128.015013,16.296887,127.873655,15.934433,127.610000,15.670000C124.089731,12.148348,119.314391,10.169788,114.335000,10.169788C109.355609,10.169788,104.580269,12.148348,101.060000,15.670000C100.796345,15.934433,100.654987,16.296887,100.670000,16.670000C100.671909,17.025255,100.811743,17.365877,101.060000,17.620000ZM114.240000,12.900000C118.043772,12.897904,121.725129,14.244310,124.630000,16.700000L120.700000,20.630000C118.848417,19.203931,116.577099,18.430417,114.240000,18.430000C113.331025,18.435360,112.426667,18.559752,111.550000,18.800000L110.330000,16.130000C110.115903,15.648098,109.637318,15.338194,109.110000,15.340000C108.916314,15.343836,108.725568,15.388117,108.550000,15.470000C108.226695,15.615990,107.975109,15.885087,107.851170,16.217470C107.727230,16.549853,107.741210,16.917974,107.890000,17.240000L109.050000,19.800000C108.603718,20.045173,108.175916,20.322576,107.770000,20.630000L103.850000,16.700000C106.753985,14.242786,110.435921,12.896168,114.240000,12.900000Z" fill="rgb(4,178,227)" stroke="none" stroke-width="1"></path><polygon id="eu414e14u78e12" points="218.820000,231.310000 230.330000,220.540000 239.140000,214.130000 245.500000,205.660000 242.570000,188.730000 230.820000,181.800000 223.160000,173.490000 210.260000,178.720000 199.980000,178.470000 194.100000,184.110000 188.470000,195.400000 187,204.380000 186.270000,211.820000 194.820000,216.770000 205.120000,226.190000 214.170000,232.090000 218.820000,231.310000" fill="rgb(255,255,255)" stroke="none" stroke-width="1"></polygon><path id="eu414e14u78e13" d="M193.160000,204.230000C191.709884,201.267199,191.407119,197.872670,192.310000,194.700000C193.581865,190.316005,197.039392,186.907200,201.440995,185.697677C205.842598,184.488154,210.556518,185.651515,213.890000,188.770000C214.650000,189.490000,215,189.550000,215.780000,188.770000C220.256482,184.531562,227.083564,183.990901,232.171376,187.471909C237.259189,190.952917,239.228682,197.512068,236.900000,203.220000C236.500000,204.150000,236.720000,204.220000,237.590000,204.220000C239.200000,204.220000,239.920000,204.670000,239.940000,205.650000C239.960000,206.630000,239.180000,207.280000,237.530000,207.100000C235.533070,206.870555,233.558187,207.682409,232.300000,209.250000C227.250000,214.490000,222.040000,219.570000,216.890000,224.710000C216.660000,224.950000,216.420000,225.190000,216.170000,225.420000C215.170000,226.420000,214.500000,226.420000,213.510000,225.420000C210.010000,221.950000,206.510000,218.420000,203.050000,214.970000C200.650000,212.570000,198.230000,210.190000,195.850000,207.770000C195.455334,207.322216,194.875689,207.082235,194.280000,207.120000C193.280000,207.120000,192.330000,207.120000,191.360000,207.120000C190.390000,207.120000,189.680000,206.470000,189.740000,205.640000C189.810000,204.640000,190.470000,204.230000,191.410000,204.200000ZM214.710000,207.470000C214.970000,207.040000,215.170000,206.730000,215.350000,206.410000L219.240000,199.620000C220.190000,197.970000,221.340000,197.930000,222.340000,199.500000C223.160000,200.790000,224.020000,202.060000,224.790000,203.380000C225.059118,203.958716,225.664964,204.303768,226.300000,204.240000C228.240000,204.190000,230.190000,204.190000,232.130000,204.240000C232.764636,204.300774,233.367619,203.951044,233.630000,203.370000C235.696643,199.723447,235.327228,195.184702,232.698097,191.920344C230.068965,188.655986,225.713187,187.327880,221.710000,188.570000C219.380000,189.290000,217.710000,190.860000,216.090000,192.500000C215.160000,193.430000,214.550000,193.410000,213.600000,192.500000C212.650000,191.590000,211.910000,190.800000,210.960000,190.070000C207.094622,187.218785,201.761450,187.460633,198.170000,190.650000C194.554484,193.848723,193.651706,199.132264,196,203.350000C196.276701,203.969834,196.926603,204.335404,197.600000,204.250000C198.755451,204.175012,199.914549,204.175012,201.070000,204.250000C201.708504,204.364830,202.327593,203.968090,202.490000,203.340000C203.490000,200.780000,204.600000,198.250000,205.660000,195.700000C205.930000,195.060000,206.270000,194.500000,207.070000,194.450000C207.870000,194.400000,208.340000,194.950000,208.670000,195.610000Q209.980000,198.220000,211.290000,200.810000C212.420000,203,213.530000,205.170000,214.710000,207.470000ZM199.410000,207.160000C199.670000,207.480000,199.750000,207.590000,199.850000,207.690000C204.660000,212.490000,209.480000,217.280000,214.250000,222.110000C214.900000,222.770000,215.170000,222.330000,215.570000,221.930000Q222.570000,214.930000,229.500000,207.990000C229.710000,207.780000,230.090000,207.640000,229.990000,207.160000C228.420000,207.160000,226.850000,207.160000,225.290000,207.160000C224.302614,207.282239,223.346548,206.764035,222.910000,205.870000C222.330000,204.800000,221.620000,203.810000,220.910000,202.640000C219.330000,205.400000,217.850000,208.010000,216.350000,210.640000C215.960000,211.300000,215.640000,212.070000,214.650000,212.030000C213.660000,211.990000,213.370000,211.260000,213.010000,210.560000Q210.420000,205.430000,207.810000,200.290000C207.690000,200.060000,207.660000,199.730000,207.240000,199.640000C206.390000,201.640000,205.490000,203.640000,204.710000,205.710000C204.451468,206.688653,203.502517,207.319856,202.500000,207.180000C201.530000,207.120000,200.600000,207.160000,199.410000,207.160000Z" fill="rgb(236,96,96)" stroke="none" stroke-width="1"></path><polygon id="eu414e14u78e14" points="7.740000,242.620000 22.860000,225.190000 34.350000,207.190000 36.270000,195.700000 35.690000,180.960000 20.760000,179.620000 2.950000,181.530000 1.990000,196.470000 2.570000,217.150000 0.080000,227.110000 1.230000,241.470000 7.740000,242.620000" fill="rgb(255,255,255)" stroke="none" stroke-width="1"></polygon><path id="eu414e14u78e15" d="M5,237.090000C5.684165,237.469969,6.544516,237.276390,7,236.640000L31.730000,202.530000C32.073651,202.060846,32.123708,201.438120,31.859410,200.920097C31.595113,200.402074,31.061543,200.077116,30.480000,200.080000L23.940000,200.080000L31.820000,186.850000C32.101074,186.371560,32.101074,185.778440,31.820000,185.300000C31.551108,184.813021,31.036243,184.513323,30.480000,184.520000L11.940000,184.520000C11.230093,184.517646,10.610559,185.000882,10.440000,185.690000L4.260000,210.520000C4.142357,210.981996,4.245317,211.472429,4.538818,211.848111C4.832320,212.223793,5.283267,212.442360,5.760000,212.440000L12.810000,212.440000L4.310000,235.190000C4.043545,235.914261,4.350475,236.724215,5.030000,237.090000ZM16.450000,211.440000C16.626653,210.964710,16.559664,210.433066,16.270627,210.016455C15.981591,209.599844,15.507056,209.350946,15,209.350000L7.740000,209.350000L13.150000,187.610000L27.770000,187.610000L19.890000,200.830000C19.611040,201.309012,19.611040,201.900988,19.890000,202.380000C20.164393,202.867729,20.680383,203.169679,21.240000,203.170000L27.480000,203.170000L11.190000,225.610000Z" fill="rgb(255,212,91)" stroke="none" stroke-width="1"></path></g></g></svg> 